<?xml version="1.0" encoding="UTF-8"?>
<!DOCTYPE svg PUBLIC "-//W3C//DTD SVG 1.1//EN" "http://www.w3.org/Graphics/SVG/1.1/DTD/svg11.dtd">
<!-- Creator: CorelDRAW (Versão OEM) -->
<svg xmlns="http://www.w3.org/2000/svg" xml:space="preserve" width="39.4818mm" height="37.613mm" version="1.1" style="shape-rendering:geometricPrecision; text-rendering:geometricPrecision; image-rendering:optimizeQuality; fill-rule:evenodd; clip-rule:evenodd"
viewBox="0 0 118.57 112.96"
 xmlns:xlink="http://www.w3.org/1999/xlink"
 xmlns:xodm="http://www.corel.com/coreldraw/odm/2003">
 <defs>
  <style type="text/css">
   <![CDATA[
    .fil0 {fill:#C16E5A;fill-rule:nonzero}
   ]]>
  </style>
 </defs>
 <g id="Camada_x0020_1">
  <metadata id="CorelCorpID_0Corel-Layer"/>
  <path class="fil0" d="M81.76 -0c0.28,0.1 0.3,0.44 0.29,0.72 -0.02,0.58 0.01,1.15 0.07,1.73 0.02,0.14 0.09,0.24 0.22,0.3 0.69,0.3 1.25,0.54 1.69,0.73 0.12,0.05 0.26,0.13 0.41,0.23 0.03,0.02 0.04,0.05 0.04,0.08 -0,0.08 0.02,0.13 0.05,0.17 0.02,0.02 0.02,0.04 0.01,0.06 -0.08,0.13 -0.23,0.23 -0.44,0.32 -0.32,0.13 -0.89,0.37 -1.7,0.73 -0.15,0.07 -0.24,0.17 -0.26,0.33 -0.03,0.22 -0.04,0.42 -0.04,0.6 0.01,0.48 -0.01,0.98 -0.05,1.5 -0.01,0.17 -0.16,0.4 -0.37,0.32 -0.26,-0.1 -0.48,-0.29 -0.68,-0.51 -0.2,-0.21 -0.4,-0.41 -0.6,-0.59 -0.02,-0.02 -0.05,-0 -0.04,0.02 0.01,0.2 0.02,0.45 0.01,0.75 -0.05,4.8 -0.15,10.34 -0.26,15.93 -0.02,0.77 0.04,1.39 0.35,2.02 0.82,1.66 1.52,3.31 1.9,5.1 0.16,0.76 0.26,1.23 0.28,1.41 0.09,0.65 0.2,1.25 0.32,1.82 0.13,0.61 0.47,1.05 1.02,1.33 0.47,0.24 0.82,0.42 1.06,0.55 0.42,0.24 0.84,0.57 1.25,1.01 0.73,0.78 1.23,1.66 1.48,2.68 0.1,0.41 0.16,0.67 0.17,0.78 0.09,0.59 0.09,1.21 0.06,1.76 -0.12,2.07 -1.19,3.98 -2.89,5.16 -0.25,0.17 -0.5,0.34 -0.77,0.5 -0.36,0.22 -0.6,0.41 -0.73,0.55 -0.3,0.33 -0.49,0.65 -0.59,0.95 -0.27,0.83 -0.43,1.31 -0.48,1.44 -0.38,1.02 -0.81,1.92 -1.29,2.71 -0.45,0.74 -1.06,1.5 -1.82,2.3 -0.31,0.32 -0.84,0.73 -1.15,1.03 -0.43,0.41 -0.31,0.74 0.12,1.08 0.54,0.43 1.06,0.87 1.54,1.33 0.57,0.54 1.16,1.23 1.77,2.08 0.49,0.68 0.93,1.44 1.31,2.28 0.49,1.08 0.85,2.17 1.08,3.28 0.15,0.73 0.24,1.15 0.26,1.25 0.05,0.22 0.19,0.35 0.43,0.4 0.24,0.05 0.58,0.11 1.01,0.18 1.11,0.19 2.23,0.56 3.16,1.07 0.01,0 0.19,0.11 0.56,0.31 0.02,0.01 0.03,-0 0.04,-0.02 0.27,-2.38 0.45,-3.91 0.54,-4.59 0.38,-3.1 0.76,-6.26 1.15,-9.48 0.12,-0.99 0.26,-2.21 0.42,-3.64 0.17,-1.48 0.41,-3.51 0.72,-6.09 0.19,-1.6 0.29,-2.43 0.3,-2.46 0.04,-0.26 0.08,-0.44 0.13,-0.55 0.68,-1.5 2.82,-0.88 2.65,0.74 -0.07,0.64 -0.18,1.56 -0.32,2.76 -0.15,1.19 -0.26,2.11 -0.33,2.76 -0.16,1.41 -0.37,2.97 -0.53,4.32 -0.62,5.37 -1.26,10.66 -1.92,15.87 -0.08,0.66 -0.16,1.46 -0.2,1.96 -0.04,0.51 -0.07,0.86 0.12,1.25 0.27,0.55 0.49,1.1 0.65,1.66 0.12,0.4 0.09,0.88 0.23,1.24 0.02,0.04 0.06,0.06 0.1,0.05 0.11,-0.03 0.22,-0.07 0.32,-0.11 1.78,-0.8 3.62,-1.72 5.54,-2.75 1.87,-1.01 3.8,-2.18 5.77,-3.52 0.71,-0.48 1.4,-0.99 2.07,-1.52 0.32,-0.25 0.6,-0.44 0.84,-0.58 0.38,-0.21 0.81,-0.39 1.24,-0.2 0.64,0.29 0.8,0.89 0.69,1.54 -0.06,0.35 -0.14,0.72 -0.27,1.11 -0.26,0.84 -0.63,1.87 -1.11,3.09 -1.08,2.77 -2.44,5.44 -3.95,7.97 -0.5,0.85 -1.14,1.82 -1.89,2.94 -0.71,1.04 -1.48,2.07 -2.32,3.09 -1.17,1.42 -2.09,2.45 -2.76,3.1 -0.17,0.17 -0.46,0.53 -0.72,0.41 -0.23,-0.1 -0.46,-0.22 -0.67,-0.36 -0.85,-0.56 -1.88,-1.24 -3.09,-2.04 -0.03,-0.02 -0.03,-0.06 -0.01,-0.09 0.86,-0.75 1.77,-1.61 2.73,-2.56 1.08,-1.08 2.18,-2.34 3.06,-3.38 0.37,-0.44 0.86,-1.07 1.47,-1.89 0.77,-1.04 1.47,-2.05 2.09,-3.03 0.71,-1.12 1.29,-2.08 1.73,-2.88 0.35,-0.64 0.56,-1.03 0.63,-1.17 0.02,-0.03 -0.02,-0.07 -0.05,-0.04 -0.03,0.03 -0.4,0.31 -1.1,0.86 -0.85,0.67 -1.53,1.11 -2.64,1.9 -0.62,0.44 -1.63,1.09 -3.01,1.94 -0.72,0.44 -1.34,0.76 -2.03,1.17 -0.43,0.26 -0.95,0.54 -1.55,0.85 -1.43,0.73 -2.66,1.34 -3.69,1.82 -3.34,1.56 -6.83,2.79 -10.47,3.72 -2.37,0.6 -4.58,1.03 -6.63,1.28 -1.6,0.19 -2.86,0.31 -3.78,0.36 -5.08,0.27 -10.12,-0.14 -15.11,-1.22 -0.64,-0.14 -1.31,-0.3 -2,-0.48 -1.05,-0.28 -1.72,-0.46 -1.99,-0.54 -1.44,-0.44 -2.9,-0.96 -4.39,-1.58 -0.42,-0.18 -0.79,-0.37 -1.19,-0.55 -0.34,-0.15 -0.63,-0.29 -0.89,-0.42 -3.36,-1.72 -6.59,-3.87 -9.41,-6.37 -0.48,-0.42 -1.38,-1.23 -1.95,-1.82 -1.2,-1.25 -2.03,-2.15 -2.5,-2.71 -0.8,-0.96 -1.5,-1.84 -2.08,-2.63 -0.83,-1.13 -1.74,-2.52 -2.71,-4.19 -0.57,-0.98 -1.09,-1.96 -1.54,-2.94 -0.59,-1.27 -1.11,-2.52 -1.55,-3.76 -0.11,-0.31 -0.18,-0.52 -0.22,-0.63 -0.17,-0.57 -0.35,-1.06 -0.49,-1.59 -0.13,-0.48 -0.29,-0.93 -0.44,-1.51 -0.52,-1.92 -0.83,-3.85 -1.06,-5.81 -0.46,-3.96 -0.39,-7.92 0.2,-11.87 0.27,-1.76 0.62,-3.37 1.05,-4.83 0.56,-1.87 1.2,-3.71 1.99,-5.49 0.12,-0.28 0.2,-0.44 0.22,-0.49 1.12,-2.44 2.49,-4.84 4.11,-7.2 0.53,-0.78 0.88,-1.2 1.64,-2.17 0.35,-0.45 0.68,-0.85 0.98,-1.19 0.56,-0.64 0.9,-1.03 1.03,-1.15 0.59,-0.6 1.09,-1.13 1.53,-1.55 1.93,-1.86 3.99,-3.56 6.18,-5.08 0.01,-0.01 0.01,-0.02 0.01,-0.03 -0.01,-0.01 -0.02,-0.01 -0.03,-0.01 -0.74,0.27 -1.62,0.6 -2.62,0.97 -0.96,0.36 -1.82,0.72 -2.58,1.08 -1.67,0.8 -3.04,1.51 -4.11,2.12 -1.78,1.03 -3.45,2.14 -5,3.33 -0.9,0.69 -1.92,1.54 -3.06,2.57 -0.34,0.3 -0.71,0.65 -1.11,1.05 -0.61,0.6 -0.97,0.96 -1.08,1.08 -0.56,0.59 -1.24,1.33 -2.02,2.22 -0.34,0.39 -0.98,1.19 -1.92,2.39 -0.44,0.57 -0.92,1.28 -1.31,1.85 -1.65,2.43 -3.06,5.01 -4.21,7.76 -0.48,1.15 -0.87,2.15 -1.16,3 -0.38,1.12 -0.65,1.99 -0.82,2.62 -0.49,1.82 -0.88,3.69 -1.17,5.62 -0.27,1.8 -0.46,3.77 -0.54,5.91 -0.02,0.51 -0.03,0.78 -0.03,0.8 -0.03,0.71 -0.04,1.28 -0.02,1.7 0.02,0.3 0.03,0.68 0.05,1.12 0.08,2.23 0.3,4.42 0.64,6.57 0.06,0.39 0.12,0.69 0.16,0.9 0.16,0.84 0.27,1.51 0.44,2.23 0.87,3.67 1.99,7.11 3.49,10.37 0.46,1 1.02,2.09 1.67,3.27 0.32,0.58 0.68,1.19 1.09,1.83 0.6,0.94 1.06,1.63 1.37,2.08 0.27,0.39 0.78,1.08 1.53,2.07 0.37,0.49 0.73,0.89 1.22,1.48 0.28,0.34 0.6,0.71 0.95,1.09 0.92,1.01 1.9,1.99 2.92,2.94 0.57,0.53 1.03,0.9 1.54,1.37 0.32,0.29 0.72,0.62 1.19,0.99 2.27,1.75 4.69,3.37 7.24,4.72 1.58,0.84 2.8,1.49 4.24,2.1 0.02,0.01 0.04,0.03 0.04,0.05 0,0.05 0.01,0.14 0.01,0.29 0.05,2.17 0.07,3.73 0.04,5.55 -0,0.03 -0.03,0.05 -0.06,0.04 -0.98,-0.36 -1.5,-0.56 -1.57,-0.58 -0.63,-0.22 -1.16,-0.42 -1.57,-0.59 -1.97,-0.82 -3.57,-1.57 -4.8,-2.24 -1.02,-0.56 -1.84,-1.03 -2.46,-1.4 -1.45,-0.87 -2.88,-1.84 -4.42,-2.97 -1.92,-1.41 -3.79,-3.01 -5.44,-4.61 -1.79,-1.73 -3.43,-3.55 -4.92,-5.46 -1.04,-1.35 -1.9,-2.54 -2.57,-3.57 -0.91,-1.4 -1.64,-2.64 -2.2,-3.7 -0.69,-1.31 -1.24,-2.43 -1.67,-3.38 -0.49,-1.09 -0.99,-2.34 -1.5,-3.73 -0.68,-1.86 -1.16,-3.65 -1.62,-5.56 -0.49,-2.02 -0.83,-3.94 -1.03,-5.83 -0.13,-1.3 -0.23,-2.76 -0.31,-4.37l0 -3.16c0.05,-1.04 0.08,-2.16 0.15,-3.12 0.1,-1.29 0.25,-2.6 0.44,-3.91 0.29,-1.99 0.72,-3.98 1.28,-5.99 0.3,-1.07 0.59,-2.02 0.88,-2.86 0.35,-1.02 0.76,-2.11 1.24,-3.27 2,-4.85 4.68,-9.31 8.04,-13.36 1.98,-2.39 4.18,-4.56 6.57,-6.56 0.58,-0.48 1.37,-1.1 2.38,-1.84 1.9,-1.4 3.86,-2.64 5.88,-3.72 0.19,-0.1 0.69,-0.35 1.5,-0.75 0.59,-0.29 1.09,-0.53 1.52,-0.72 2.99,-1.33 6.14,-2.39 9.44,-3.19 1.76,-0.43 3.33,-0.73 5.09,-0.93 2.6,-0.29 5.23,-0.41 7.83,-0.23 0.42,0.03 0.86,0.09 1.31,0.18 0.03,0.01 0.03,0.04 0.01,0.06 -0.3,0.14 -0.6,0.27 -0.89,0.38 -0.91,0.34 -1.67,0.64 -2.31,0.89 -2.22,0.9 -4.34,1.93 -6.36,3.12 -1.33,0.78 -2.7,1.72 -4.12,2.82 -1.05,0.82 -1.99,1.63 -2.81,2.44 -0.58,0.57 -1.41,1.39 -1.95,2.03 -0.27,0.31 -0.55,0.65 -0.86,1 -1.69,1.97 -3.21,4.18 -4.55,6.61 -0.29,0.52 -0.57,1.11 -0.86,1.67 -0.14,0.27 -0.25,0.5 -0.33,0.68 -0.28,0.63 -0.57,1.25 -0.81,1.88 -0.46,1.22 -0.73,1.97 -0.83,2.24 -0.56,1.65 -1.01,3.39 -1.36,5.13 -0.1,0.5 -0.22,1.24 -0.36,2.22 -0.11,0.74 -0.18,1.48 -0.23,2.24 -0.11,1.63 -0.14,2.98 -0.1,4.05 0.05,1.38 0.13,2.5 0.21,3.34 0.08,0.75 0.23,1.97 0.39,2.85 0.43,2.31 1.04,4.49 1.81,6.57 1.1,2.97 2.61,5.89 4.46,8.56 0.98,1.42 2.02,2.76 3.11,4.02 0.19,0.22 0.37,0.42 0.56,0.6 0.14,0.13 0.3,0.16 0.48,0.07 0.33,-0.16 0.36,-0.57 0.46,-0.87 0.32,-0.91 0.54,-1.52 0.66,-1.85 0.41,-1.06 0.84,-1.99 1.28,-2.8 0.15,-0.28 0.42,-0.72 0.81,-1.31 0.15,-0.23 0.35,-0.66 0.43,-0.95 0.2,-0.82 -0.02,-1.56 -0.51,-2.29 -0.21,-0.31 -0.73,-1.09 -1.56,-2.34 -0.28,-0.43 -0.87,-0.61 -1.37,-0.59 -0.24,0.01 -0.53,0.01 -0.88,0.01 -1.64,-0 -3.05,-0.47 -4.23,-1.39 -1.26,-0.99 -2.06,-2.28 -2.39,-3.84 -0.09,-0.42 -0.14,-0.95 -0.15,-1.61 -0.03,-1.25 0.22,-2.37 0.77,-3.45 0.44,-0.87 1.19,-1.62 1.98,-2.17 0.57,-0.39 1.02,-0.68 1.12,-1.33 0.02,-0.15 0,-0.4 -0.06,-0.73 -0.2,-1.03 -0.33,-1.95 -0.39,-2.75 -0.13,-1.67 -0.05,-3.39 0.23,-5.18 0.07,-0.42 0.14,-0.78 0.21,-1.08 0.12,-0.46 0.19,-0.9 0.34,-1.43 1.13,-3.94 3.41,-7.47 6.41,-10.21 1.29,-1.18 2.78,-2.3 4.35,-3.19 0.93,-0.53 1.86,-0.98 2.79,-1.36 3.15,-1.3 6.65,-1.92 10.03,-1.93 0.37,-0 0.7,0 0.97,0.02 0.49,0.02 0.83,0.02 1.28,0.06 0.95,0.08 1.98,0.2 3.08,0.37 0.48,0.07 1.09,-0.2 1.54,-0.43 0.76,-0.41 1.77,-1.09 2.28,-1.42 2.11,-1.33 4.96,-3.18 6.43,-4.1 1.82,-1.14 3.89,-2.47 6.21,-3.99 0.11,-0.07 0.13,-0.16 0.07,-0.27 -0.23,-0.4 -0.46,-0.84 -0.72,-1.33 -0.12,-0.24 -0.21,-0.48 -0.28,-0.71 -0.08,-0.29 0.25,-0.45 0.49,-0.4 0.11,0.02 0.25,0.06 0.44,0.13 0.36,0.13 0.76,0.27 1.19,0.42 0.15,0.05 0.3,0.08 0.44,0.09 0.09,0 0.18,-0.03 0.25,-0.1 0.2,-0.2 0.45,-0.46 0.74,-0.78 0.28,-0.31 0.59,-0.58 0.92,-0.81l0.22 0zm7.34 98.54c0.04,-0.05 0.15,-0.2 0.32,-0.46 0.35,-0.51 0.85,-0.93 1.45,-1.06 0.98,-0.21 1.9,0.29 2.27,1.22 0.63,1.6 -0.52,3.2 -1.59,4.33 -0.49,0.52 -1.16,1.19 -2.01,2.02 -0.16,0.16 -0.33,0.17 -0.51,0.05 -0.95,-0.63 -2.01,-1.39 -2.88,-2.28 -0.49,-0.5 -0.96,-1.08 -1.15,-1.73 -0.19,-0.63 -0.17,-1.27 0.07,-1.9 0.31,-0.82 1.07,-1.31 1.93,-1.38 0.76,-0.06 1.4,0.37 1.83,0.91 0.14,0.18 0.21,0.26 0.21,0.26 0.02,0.02 0.04,0.02 0.06,-0zm-14.02 14.41l-14.27 0c-0.83,-0.17 -1.17,-0.91 -1.22,-1.68 -0.03,-0.55 -0.05,-0.89 -0.05,-1.01 -0.06,-3.8 -0.06,-7.37 -0,-10.69 0.01,-0.61 0.1,-1.16 0.27,-1.62 0.1,-0.27 0.27,-0.65 0.53,-1.14 0.46,-0.88 0.85,-1.64 1.19,-2.3 0.21,-0.41 0.45,-0.68 0.87,-0.85 0.31,-0.12 0.58,-0.18 0.83,-0.18 3.31,-0.02 6.19,-0.03 8.64,-0.04 0.52,-0 0.84,0 0.93,0.02 0.29,0.04 0.59,0.13 0.89,0.27 0.39,0.19 0.62,0.59 0.84,1 0.66,1.22 1.12,2.13 1.4,2.73 0.19,0.4 0.3,0.75 0.35,1.07 0.04,0.29 0.09,0.7 0.09,1.09 -0,5.79 -0,9.19 -0,10.21 0,0.53 -0.02,1.04 -0.06,1.52 -0.06,0.77 -0.43,1.39 -1.22,1.6zm-1.11 -15.56c-0.32,-0.69 -0.68,-1.39 -1.06,-2.11 -0.08,-0.16 -0.16,-0.27 -0.24,-0.32 -0.13,-0.1 -0.25,-0.15 -0.37,-0.14 -4.81,0.01 -7.72,0.01 -8.74,0.01 -0.23,0 -0.4,0.1 -0.51,0.3 -0.34,0.66 -0.7,1.4 -1.1,2.23 -0.02,0.03 0.01,0.07 0.04,0.07l11.95 0c0.02,0 0.03,-0.02 0.02,-0.04zm-3.3 8.91c0.12,-0.16 0.4,-0.44 0.84,-0.85 0.35,-0.33 0.65,-0.61 0.9,-0.84 0.23,-0.21 0.4,-0.39 0.49,-0.55 0.07,-0.1 0.05,-0.22 -0.05,-0.35 -0.01,-0.02 -0.03,-0.03 -0.06,-0.04 -0.16,-0.05 -0.32,-0.09 -0.5,-0.12 -0.77,-0.1 -1.55,-0.2 -2.36,-0.3 -0.04,-0 -0.12,-0.02 -0.25,-0.04 -0.08,-0.02 -0.15,-0.07 -0.19,-0.14 -0.3,-0.61 -0.62,-1.29 -0.98,-2.05 -0.13,-0.28 -0.25,-0.51 -0.36,-0.69 -0.12,-0.19 -0.33,-0.19 -0.47,-0.02 -0.05,0.06 -0.09,0.14 -0.14,0.23 -0.63,1.38 -1,2.18 -1.1,2.4 -0.04,0.08 -0.08,0.15 -0.13,0.19 -0.02,0.02 -0.05,0.03 -0.07,0.04 -0.27,0.06 -0.54,0.1 -0.82,0.14 -1.14,0.15 -1.86,0.25 -2.15,0.28 -0.18,0.02 -0.23,0.08 -0.32,0.22 -0.1,0.16 0.11,0.39 0.23,0.49 0.75,0.69 1.39,1.32 1.94,1.86 0.11,0.11 0.14,0.21 0.11,0.36 -0.18,0.87 -0.34,1.77 -0.49,2.67 -0.02,0.12 -0.03,0.23 -0.03,0.31 0,0.07 0.04,0.14 0.11,0.17 0.18,0.09 0.3,0.05 0.49,-0.05 1.03,-0.54 1.86,-0.99 2.5,-1.33 0.1,-0.05 0.19,-0.05 0.28,-0 0.2,0.11 0.9,0.5 2.11,1.16 0.22,0.12 0.84,0.51 0.93,0.07 0.02,-0.1 0.02,-0.19 0.01,-0.28 -0.15,-0.79 -0.3,-1.68 -0.47,-2.66 -0.01,-0.08 -0.06,-0.24 -0.01,-0.31zm-29.17 -14.74c0.39,-0.43 1.03,-0.7 1.57,-0.75 0.49,-0.05 1.02,-0.06 1.61,-0.04 1.26,0.05 2.35,0.07 4.02,0.07 0.75,0 1.7,0.02 2.86,0.05 1.06,0.03 2.32,0.05 3.76,0.05 0.57,0 1.31,0.13 1.74,0.51 0.51,0.46 0.6,1.02 0.66,1.7 0.06,0.67 0.1,1.67 0.14,3.01 0.02,0.72 0.03,1.22 0.05,1.48 0.02,0.56 0.02,1.11 0,1.67 -0.03,0.59 -0.04,1.06 -0.04,1.41 -0.01,1.54 0.02,3.05 -0.04,4.45 -0.03,0.64 -0.04,1.11 -0.36,1.62 -0.51,0.8 -1.17,1.62 -1.71,2.3 -0.39,0.49 -0.87,1.12 -1.5,1.32 -0.46,0.14 -0.84,0.21 -1.15,0.22 -0.27,0 -0.58,-0 -0.91,-0.01 -1.47,-0.05 -2.41,-0.08 -2.81,-0.08 -2.79,-0.02 -5.96,-0.11 -8.68,-0.12 -1.26,-0.01 -2.16,-0.35 -2.37,-1.71 -0.03,-0.19 -0.04,-0.45 -0.04,-0.78 -0.01,-4.63 -0.02,-8.19 -0.04,-10.69 -0,-0.68 0,-1.09 0.02,-1.2 0.14,-0.78 0.55,-1.37 1.07,-1.97 0.48,-0.55 1.07,-1.25 1.78,-2.1 0.04,-0.04 0.16,-0.18 0.37,-0.4zm-0.47 3.16c0.18,0.02 0.34,0.03 0.48,0.03 1.86,0.05 4.71,0.09 8.56,0.12 0.58,0.01 1,0.01 1.26,0.02 0.67,0.03 1.09,0.04 1.26,0.04 0.38,-0 0.67,-0.12 0.88,-0.36 0.58,-0.65 1.13,-1.35 1.64,-2.08 0.03,-0.04 0,-0.09 -0.04,-0.1 -0.34,-0.04 -0.62,-0.1 -0.97,-0.11 -0.64,-0.02 -1.01,-0.03 -1.11,-0.03 -1.6,-0 -3.84,-0.02 -6.74,-0.05 -0.84,-0.01 -1.62,-0.05 -2.42,-0.03 -0.16,0.01 -0.34,0.02 -0.52,0.06 -0.05,0.01 -0.1,0.02 -0.14,0.05 -0.14,0.07 -0.31,0.22 -0.52,0.46 -0.6,0.68 -1.14,1.32 -1.64,1.94 -0.01,0.01 -0,0.04 0.02,0.04zm6.52 5.62c-0.01,0 -0.02,-0 -0.03,-0.01 -0.55,-0.96 -1.63,-1.81 -2.8,-1.41 -1.13,0.39 -1.77,1.46 -1.62,2.65 0.15,1.19 0.93,2.18 1.78,3.02 0.77,0.76 1.57,1.44 2.41,2.06 0.05,0.04 0.19,0.12 0.26,0.12 0.07,0 0.21,-0.08 0.26,-0.12 0.84,-0.62 1.64,-1.3 2.41,-2.06 0.85,-0.84 1.63,-1.83 1.78,-3.02 0.15,-1.19 -0.49,-2.26 -1.63,-2.65 -1.17,-0.4 -2.25,0.45 -2.8,1.41 -0,0.01 -0.01,0.01 -0.03,0.01zm30.52 5.9c-0.03,-0.43 -0.05,-0.79 -0.05,-1.08 -0,-3.24 -0.01,-5.1 -0.02,-5.56 -0.01,-0.63 -0.03,-1.08 -0.07,-1.34 -0.05,-0.35 -0.18,-0.78 -0.38,-1.28 -0.21,-0.52 -0.44,-1 -0.68,-1.45 -0.29,-0.55 -0.79,-1.46 -1.48,-2.73 -0.26,-0.47 -0.2,-0.94 -0.19,-1.51 0.03,-0.85 0.45,-1.56 1.32,-1.74 0.25,-0.05 0.63,-0.1 1.15,-0.15 1.31,-0.12 2.63,-0.31 3.9,-0.45 2.23,-0.24 4.39,-0.47 6.48,-0.69 0.83,-0.09 1.62,-0.07 2.36,0.3 0.37,0.19 0.78,0.43 1.25,0.72 1.53,0.97 2.78,1.74 3.75,2.33 0.64,0.39 1.16,0.75 1.3,1.54 0.06,0.34 0.08,0.87 0.09,1.28 0.08,3.28 0.09,6.54 0.04,9.79 -0.01,0.48 -0.04,1.1 -0.11,1.84 -0.08,0.86 -0.62,1.52 -1.5,1.63 -0.29,0.04 -0.43,0.05 -0.43,0.05 -3.84,0.55 -7.6,1.04 -11.26,1.45 -0.78,0.09 -1.51,0.09 -2.22,-0.24 -0.21,-0.1 -0.45,-0.25 -0.72,-0.45 -0.8,-0.61 -1.58,-1.23 -2.32,-1.85 -0.06,-0.05 -0.11,-0.11 -0.15,-0.18 -0.03,-0.05 -0.05,-0.13 -0.06,-0.23zm15.38 -13.93c-0.08,-0.08 -0.19,-0.17 -0.32,-0.25 -1.04,-0.66 -2.11,-1.33 -3.2,-1.99 -0.38,-0.23 -0.81,-0.34 -1.28,-0.32 -1.06,0.04 -2.09,0.19 -3.23,0.31 -2.38,0.24 -4.71,0.49 -6.98,0.75 -0.05,0.01 -0.09,0.01 -0.11,0.03 -0.04,0.02 -0.05,0.07 -0.01,0.1 0.49,0.39 0.99,0.77 1.5,1.13 0.94,0.66 1.42,0.99 1.44,1.01 0.36,0.26 0.79,0.48 1.21,0.48 0.68,0 1.3,-0.07 2.05,-0.16 4.39,-0.53 7.26,-0.87 8.6,-1.01 0.07,-0.01 0.18,-0.01 0.32,-0.02 0.02,-0 0.03,-0.02 0.02,-0.04zm-10.39 14.1c0,0.42 0.37,0.75 0.79,0.7l10.4 -1.27c0.35,-0.04 0.62,-0.34 0.62,-0.7l0 -10.16c0,-0.42 -0.37,-0.75 -0.79,-0.7l-10.4 1.2c-0.36,0.04 -0.63,0.34 -0.63,0.7l0 10.23zm-69.84 -35.5c0.01,-0.05 0.07,-0.07 0.11,-0.03 0.17,0.18 0.39,0.48 0.68,0.89 0.9,1.3 1.81,2.55 2.72,3.72 0.65,0.84 1.75,2.12 3.29,3.84 0.1,0.11 0.53,0.55 1.27,1.31 1.4,1.43 2.94,2.77 4.48,3.97 0.5,0.39 1.25,0.95 2.24,1.68 0.42,0.31 1.07,0.74 1.96,1.31 0.57,0.37 1.25,0.76 2.03,1.2 0.91,0.5 1.8,0.99 2.69,1.46 0.68,0.36 1,0.93 0.97,1.7 -0.02,0.39 -0.36,0.79 -0.69,0.95 -0.2,0.11 -0.44,0.15 -0.72,0.13 -0.33,-0.02 -0.57,-0.07 -0.73,-0.14 -1.34,-0.57 -2.44,-1.17 -3.69,-1.94 -2.13,-1.33 -4.16,-2.89 -6.09,-4.69 -0.73,-0.68 -1.36,-1.31 -1.9,-1.88 -1.72,-1.83 -3.32,-3.83 -4.7,-5.86 -1.26,-1.84 -2.41,-3.9 -3.41,-6.12 -0.18,-0.4 -0.34,-0.82 -0.47,-1.25 -0.03,-0.09 -0.04,-0.18 -0.02,-0.25zm36.59 -19.56c-0.28,-1.59 -1.91,-2.63 -3.63,-2.32 -1.72,0.31 -2.88,1.84 -2.6,3.43 0.28,1.59 1.91,2.63 3.63,2.32 1.72,-0.31 2.88,-1.84 2.6,-3.43zm5.41 -2.3c0.3,-0.37 0.8,-0.29 1.14,-0 0.47,0.4 0.88,0.74 1.38,0.98 1.4,0.67 3.09,0.67 4.49,0.03 1.03,-0.47 1.63,-1.19 2.16,-2.17 0.17,-0.3 0.37,-0.53 0.72,-0.54 0.33,-0.01 0.6,0.16 0.7,0.5 0.06,0.21 0.07,0.4 0.01,0.56 -0.51,1.5 -1.44,2.59 -2.79,3.26 -1.19,0.59 -2.45,0.8 -3.8,0.63 -1.45,-0.18 -2.59,-0.78 -3.62,-1.77 -0.39,-0.38 -0.81,-0.94 -0.4,-1.46zm21.14 -1.8c-0.08,-1.47 -1.41,-2.59 -2.98,-2.51 -1.57,0.08 -2.78,1.34 -2.7,2.81 0.08,1.47 1.41,2.59 2.98,2.51 1.57,-0.08 2.78,-1.34 2.7,-2.81zm42.21 -1.25l0 1.85 -0.04 0.14c-0,0.01 -0.01,0.01 -0.02,0 -0.01,-0.01 -0.01,-0.02 -0.01,-0.02 -0.01,-0.01 -0.03,-0.01 -0.04,0.01 -0.06,0.12 -0.21,0.34 -0.45,0.66 -1.06,1.4 -2.49,3.29 -4.28,5.69 -0.07,0.09 -0.15,0.18 -0.1,0.28 0.01,0.01 0.07,0.08 0.21,0.22 0.5,0.53 1,1.03 1.48,1.49 0.89,0.87 1.88,1.9 2.79,2.73 0.21,0.2 0.37,0.38 0.46,0.56l0 2.03 -0.02 0.03c-0.01,0.01 -0.02,0.02 -0.04,0.01 -0,-0 -0,-0 -0.01,-0 -0,-0 -0.01,-0.01 -0.02,-0 -1.61,0.59 -3.12,0.97 -4.52,1.14 -0.74,0.09 -1.71,0.14 -2.9,0.15 -0.55,0 -1.25,-0.05 -1.89,-0.09 -0.99,-0.06 -2.12,-0.22 -3.24,-0.43 -1.21,-0.23 -2.23,-0.41 -3.04,-0.54 -2.22,-0.35 -4.52,-0.55 -6.73,-0.19 -0.48,0.08 -0.96,0.17 -1.41,0.27 -0.02,0 -0.04,-0.01 -0.04,-0.03l2.06 -17.52c0.01,-0.04 0.04,-0.07 0.08,-0.08 1.35,-0.16 2.65,-0.17 3.9,-0.04 0.99,0.11 2.18,0.31 3.42,0.58 0.95,0.21 2.31,0.57 4.09,1.07 0.7,0.2 1.53,0.37 2.48,0.51 2.64,0.4 5.25,0.24 7.83,-0.48zm-14.61 5.34c0.02,0 0.04,0.02 0.04,0.05 -0.04,0.39 -0.1,0.87 -0.17,1.45 -0.22,1.78 -0.46,3.69 -0.72,5.73 -0.02,0.16 -0.01,0.27 0.06,0.4 0.03,0.06 0.09,0.1 0.16,0.11l2.07 0.28c0.05,0.01 0.09,-0.01 0.12,-0.05 0.1,-0.13 0.16,-0.26 0.18,-0.38 0.07,-0.41 0.15,-1.03 0.24,-1.87 0.12,-1.08 0.34,-2.92 0.68,-5.53 0.02,-0.18 0.05,-0.36 0.07,-0.54 0.1,-0.84 0.19,-1.57 0.26,-2.2 0,-0.03 -0,-0.05 -0.02,-0.08 -0.06,-0.1 -0.16,-0.16 -0.3,-0.17 -0.49,-0.05 -0.96,-0.1 -1.41,-0.17 -0.19,-0.03 -0.35,0.01 -0.49,0.1 -0.94,0.6 -1.95,1.01 -3,1.32 -0.24,0.07 -0.31,0.23 -0.24,0.47 0.07,0.21 0.19,0.6 0.36,1.15 0.06,0.19 0.12,0.31 0.17,0.35 0.18,0.16 0.43,0.12 0.65,0.03 0.64,-0.26 0.99,-0.4 1.04,-0.41 0.09,-0.03 0.18,-0.04 0.25,-0.03zm-54.76 -9.37c1.51,-0.38 3.04,0.56 3.42,2.09 0.38,1.53 -0.53,3.08 -2.04,3.45 -1.51,0.38 -3.04,-0.56 -3.42,-2.09 -0.38,-1.53 0.53,-3.08 2.04,-3.45zm0.5 1.82c0,-0.44 -0.36,-0.8 -0.8,-0.8 -0.44,0 -0.8,0.36 -0.8,0.8 0,0.44 0.36,0.8 0.8,0.8 0.44,0 0.8,-0.36 0.8,-0.8zm18.87 -4.77c1.55,-0.06 2.85,1.16 2.92,2.73 0.07,1.57 -1.13,2.9 -2.68,2.96 -1.55,0.06 -2.85,-1.16 -2.92,-2.73 -0.07,-1.57 1.13,-2.9 2.68,-2.96zm-1.6 1.62c-0.14,0.41 0.08,0.86 0.5,1.01 0.42,0.14 0.87,-0.08 1.01,-0.49 0.14,-0.41 -0.08,-0.86 -0.5,-1.01 -0.42,-0.14 -0.87,0.08 -1.01,0.49zm-21.2 -1.36c-0.16,0.12 -0.37,0.1 -0.44,-0.11 -0.14,-0.43 0.55,-1.31 0.83,-1.58 0.67,-0.64 1.55,-1.12 2.48,-1.12 0.17,-0 0.37,0.07 0.51,0.19 0.22,0.19 0.26,0.46 0.12,0.79 -0.07,0.17 -0.2,0.28 -0.4,0.34 -0.27,0.07 -0.59,0.11 -0.89,0.21 -0.64,0.21 -1.22,0.52 -1.75,0.93 -0.14,0.11 -0.29,0.23 -0.44,0.35zm25.19 -3.98c-0.13,0.17 -0.28,0.24 -0.5,0.15 -0.64,-0.26 -1.36,-0.46 -1.97,-0.43 -0.52,0.02 -0.95,0.03 -1.28,0.03 -0.07,-0 -0.17,-0.04 -0.3,-0.11 -0.22,-0.13 -0.33,-0.32 -0.32,-0.57 0.03,-0.63 0.7,-0.74 1.24,-0.75 1,-0.02 2,0.26 2.76,0.94 0.14,0.12 0.54,0.52 0.36,0.74zm-15.69 -7.44c-0.02,-0 -0.03,-0.02 -0.02,-0.04 0.49,-0.98 0.17,-2.18 -0.86,-2.65 -1,-0.45 -2.44,0.02 -2.87,1.09 -0.62,1.52 0.27,3.1 1.71,3.71 2.22,0.93 5.03,-0.27 6.25,-2.26 0.43,-0.7 0.71,-1.46 0.83,-2.29 0.27,-1.73 -0.28,-3.5 -1.42,-4.82 -0.08,-0.09 -0.36,-0.37 -0.85,-0.84 -0.04,-0.04 -0.07,-0.1 -0.08,-0.19 -0,-0.02 0.02,-0.04 0.04,-0.03 0.16,0.07 0.43,0.1 0.63,0.17 1.28,0.47 2.26,1.33 2.94,2.57 0.43,0.8 0.7,1.6 0.79,2.4 0.09,0.79 0.03,1.63 -0.2,2.52 -0.4,1.58 -1.28,2.89 -2.65,3.93 -0.35,0.27 -0.82,0.54 -1.4,0.81 -1.6,0.75 -3.34,0.92 -5.06,0.56 -2.7,-0.58 -4.68,-2.91 -4.36,-5.73 0.04,-0.36 0.15,-0.77 0.34,-1.21 0.51,-1.24 1.55,-2.15 2.83,-2.56 1.82,-0.58 3.86,0.13 4.51,2.04 0.24,0.71 0.19,1.4 -0.15,2.06 -0.15,0.28 -0.59,0.83 -0.94,0.78zm50.48 -2.26c0.16,0.18 0.27,0.53 0.1,0.75 -0.23,0.29 -0.49,0.59 -0.78,0.89 -0.08,0.08 -0.84,0.86 -2.3,2.33 -0.38,0.38 -0.79,0.76 -0.88,1.3 -0.03,0.19 -0,0.51 0.08,0.97 0.31,1.73 0.52,2.93 0.63,3.61 0.06,0.35 0.06,0.68 0.02,0.97 -0.06,0.48 -0.52,0.68 -0.96,0.57 -0.31,-0.08 -0.59,-0.25 -0.87,-0.38 -0.78,-0.38 -1.59,-0.85 -2.35,-1.2 -0.43,-0.2 -0.96,-0.53 -1.53,-0.74 -0.27,-0.1 -0.53,-0.09 -0.79,0.02 -0.43,0.18 -0.85,0.38 -1.26,0.59 -0.07,0.04 -0.81,0.42 -2.2,1.14 -0.42,0.22 -0.82,0.41 -1.2,0.56 -0.14,0.06 -0.41,0.07 -0.56,0.01 -0.49,-0.2 -0.51,-0.76 -0.44,-1.22 0.15,-1.1 0.33,-2.23 0.53,-3.37 0,-0.01 0.04,-0.27 0.1,-0.78 0.07,-0.54 0.09,-0.95 -0.25,-1.39 -0.2,-0.26 -0.48,-0.57 -0.84,-0.94 -0.57,-0.57 -1.37,-1.37 -2.41,-2.39 -0.16,-0.15 -0.43,-0.45 -0.49,-0.67 -0.12,-0.48 0.08,-0.85 0.58,-0.93 0.26,-0.04 1.52,-0.23 3.79,-0.57 0.5,-0.07 0.91,-0.15 1.24,-0.24 0.44,-0.12 0.68,-0.41 0.92,-0.86 0.89,-1.65 1.64,-3.28 2.01,-4 0.1,-0.19 0.28,-0.5 0.48,-0.62 0.27,-0.17 0.56,-0.14 0.85,0.08 0.09,0.07 0.18,0.2 0.28,0.39 0.58,1.12 1.23,2.4 1.95,3.82 0.24,0.47 0.48,0.92 0.99,1.11 0.15,0.06 0.37,0.11 0.66,0.15 1.3,0.2 2.58,0.41 3.84,0.62 0.46,0.08 0.79,0.13 1.06,0.42zm-27.63 -13.61l0.17 -5.8c0,-0.02 -0.02,-0.04 -0.05,-0.03 -0.16,0.07 -0.35,0.17 -0.59,0.31 -0.51,0.31 -1.1,0.68 -1.77,1.13 -0.24,0.16 -0.44,0.4 -0.4,0.67 0.03,0.2 0.13,0.44 0.27,0.71 0.46,0.87 1.02,1.59 1.7,2.41 0.2,0.24 0.4,0.44 0.59,0.62 0.02,0.02 0.06,0.01 0.06,-0.03zm-0.23 7.98c0.05,-1.63 0.09,-2.83 0.11,-3.59 0,-0.07 -0.01,-0.16 -0.03,-0.25 -0,-0.02 -0.02,-0.04 -0.03,-0.06 -0.48,-0.41 -0.72,-0.62 -0.73,-0.63 -1.4,-1.21 -2.66,-2.64 -3.67,-4.24 -0.3,-0.47 -0.51,-0.91 -0.79,-1.43 -0.02,-0.04 -0.07,-0.05 -0.1,-0.02 -0.78,0.57 -1.63,1.15 -2.54,1.73 -0.13,0.08 -0.19,0.15 -0.1,0.31 0.06,0.1 0.18,0.34 0.35,0.71 0.35,0.73 0.8,1.38 1.32,2.12 0.32,0.46 0.69,0.9 1.09,1.32 0.69,0.72 1.17,1.19 1.43,1.41 0.82,0.7 1.4,1.17 1.74,1.41 0.48,0.34 1.01,0.7 1.61,1.06 0.13,0.08 0.23,0.13 0.3,0.16 0.02,0.01 0.04,-0.01 0.04,-0.03zm-0.52 4.02c0.01,0 0.02,-0.01 0.01,-0.02 -0.07,-0.08 -0.15,-0.15 -0.25,-0.21 -2.75,-1.63 -5.33,-3.67 -7.41,-6.08 -0.73,-0.85 -1.37,-1.85 -1.95,-2.86 -0.26,-0.45 -0.45,-0.86 -0.65,-1.3 -0.01,-0.02 -0.04,-0.03 -0.06,-0.02 -1.07,0.71 -1.97,1.3 -2.71,1.78 -0.17,0.11 -0.3,0.22 -0.39,0.34 -0.14,0.18 -0.01,0.53 0.08,0.71 0.56,1.04 1.38,1.91 2.28,2.75 1.9,1.78 4.23,3.05 6.64,3.95 1.42,0.53 2.88,0.85 4.4,0.97zm-8.49 36.77c-0.6,0.12 -1.03,0.2 -1.29,0.25 -1.66,0.3 -3.27,0.34 -4.88,-0.02 -0.64,-0.14 -1.24,-0.38 -1.79,-0.72 -0.04,-0.02 -0.03,-0.08 0.01,-0.09 0.24,-0.08 0.5,-0.15 0.77,-0.21 0.19,-0.04 0.81,-0.18 1.86,-0.41 0.86,-0.19 1.82,-0.45 2.86,-0.79 2.32,-0.74 4.53,-1.73 6.63,-2.97 0.75,-0.44 1.57,-1.01 2.45,-1.72 0.6,-0.47 1.16,-1.03 1.66,-1.58 1.03,-1.11 1.78,-2.39 2.27,-3.84 0.43,-1.27 0.51,-2.57 0.39,-3.87 -0.08,-0.88 -0.23,-1.66 -0.38,-2.5 -0.07,-0.39 -0.11,-0.76 -0.13,-1.11 -0.03,-0.46 -0.02,-0.83 0.01,-1.12 0.3,-2.47 0.23,-4.96 -0.22,-7.46 -0.25,-1.39 -0.72,-2.78 -1.31,-4.08 -0.37,-0.81 -0.63,-1.33 -1.45,-1.56 -0.63,-0.17 -1.39,-0.25 -2.07,-0.43 -1.53,-0.41 -3.02,-0.94 -4.46,-1.6 -1.07,-0.49 -1.94,-0.99 -2.92,-1.6 -0.43,-0.27 -0.9,-0.6 -1.39,-0.99 -0.63,-0.5 -1.16,-0.94 -1.57,-1.32 -1.09,-1.01 -2.03,-2.14 -2.81,-3.37 -0.03,-0.05 -0.06,-0.09 -0.11,-0.12 -0.28,-0.25 -0.57,-0.4 -0.86,-0.46 -0.74,-0.16 -1.63,-0.26 -2.67,-0.3 -0.46,-0.02 -0.73,-0.03 -0.8,-0.03 -0.24,-0.01 -0.51,-0.01 -0.81,-0 -0.55,0.02 -1.04,0.04 -1.48,0.08 -1.8,0.14 -3.55,0.49 -5.25,1.03 -3.33,1.07 -6.18,2.87 -8.55,5.38 -0.54,0.58 -0.98,1.08 -1.3,1.49 -1.16,1.51 -2.07,3.16 -2.73,4.97 -0.36,1 -0.63,1.98 -0.79,2.94 -0.36,2.16 -0.34,4.37 -0.08,6.66 0.05,0.39 0.12,0.84 0.22,1.36 0.15,0.76 0.25,1.21 0.29,1.34 0.18,0.6 0.41,1.36 0.69,2.28 0.08,0.28 0.27,0.98 0.13,1.18 -0.01,0.02 -0.03,0.03 -0.06,0.04 -0.12,0.04 -0.25,0.01 -0.41,-0.08 -0.53,-0.32 -1.12,-0.55 -1.75,-0.7 -1.36,-0.32 -2.5,0.38 -2.9,1.7 -0.32,1.04 -0.24,2.07 0.11,3.07 0.36,1.01 1.03,1.71 2.03,2.11 0.51,0.21 1.31,0.33 1.87,0.24 0.3,-0.04 0.76,-0.22 0.92,-0.5 0.28,-0.49 0.44,-1.09 0.62,-1.62 0.09,-0.26 0.17,-0.46 0.25,-0.6 0.02,-0.04 0.04,-0.06 0.04,-0.07 0.06,-0.04 0.15,-0.02 0.18,0.04 0.2,0.38 0.46,0.92 0.77,1.64 0.21,0.47 0.49,1 0.84,1.59 0.61,1.02 1.43,1.93 2.28,2.72 0.86,0.8 1.92,1.43 2.97,1.91 1.29,0.58 2.64,0.99 4.05,1.22 1.25,0.2 2.28,0.39 3.1,0.57 2.11,0.46 4.32,1.24 5.88,2.83 0.37,0.38 0.61,0.63 0.72,0.77 0.81,1.01 1.4,2.16 1.97,3.35 0.21,0.44 0.68,0.68 1.15,0.81 1.45,0.4 3.06,-0.05 4.26,-0.91 0.4,-0.29 0.7,-0.52 0.9,-0.71 0.9,-0.84 1.52,-1.87 1.87,-3.1 0.09,-0.33 0.14,-0.66 0.15,-0.99 0,-0.02 -0.02,-0.03 -0.03,-0.03zm13.42 -16.25c0.24,0.06 0.5,0.02 0.76,-0.12 0.77,-0.41 1.36,-1.21 1.59,-2.04 0.25,-0.89 0.23,-1.76 -0.06,-2.62 -0.26,-0.77 -0.9,-1.49 -1.71,-1.64 -0.39,-0.07 -0.75,-0.01 -1.03,0.27 -0.13,0.13 -0.23,0.44 -0.27,0.6 -0.16,0.64 -0.25,1.26 -0.3,1.87 -0.06,0.81 0.09,1.53 0.34,2.39 0.1,0.33 0.37,1.21 0.68,1.29zm-2.29 31.19c0.14,0.01 0.32,0.07 0.44,0.11 0.5,0.15 0.85,0.47 1.06,0.97 0.11,0.26 0.17,0.46 0.21,0.6 0.14,0.63 0.18,0.98 0.33,1.38 0.16,0.43 0.35,0.79 0.79,0.98 0.6,0.26 1.14,-0.38 1.32,-0.89 0.17,-0.49 0.26,-0.96 0.27,-1.41 0.01,-0.45 0.01,-0.9 0,-1.38 -0,-0.07 0.07,-0.11 0.13,-0.07 0.19,0.11 0.42,0.49 0.47,0.64 0.16,0.42 0.28,0.89 0.32,1.35 0.04,0.53 0.09,1.45 0.78,1.53 0.39,0.05 0.74,-0.19 0.94,-0.51 0.58,-0.93 0.5,-2.22 0.36,-3.31 -0.01,-0.05 -0,-0.09 0.02,-0.12 0.02,-0.02 0.05,-0.03 0.07,-0.01 0.3,0.22 0.52,0.5 0.68,0.83 0.24,0.52 0.28,0.98 0.37,1.63 0.05,0.36 0.39,0.63 0.76,0.48 0.78,-0.33 1.01,-1.68 0.99,-2.41 -0.02,-1.14 -0.4,-2.14 -1.13,-3 -1.11,-1.31 -2.9,-2.07 -4.56,-2.24 -1.58,-0.16 -3.19,0.21 -4.61,0.96 -0.29,0.16 -0.63,0.35 -0.99,0.59 -0.06,0.04 -0.13,0.05 -0.2,0.04 -0.04,-0.01 -0.07,-0.05 -0.07,-0.09 0.03,-0.42 0.24,-0.86 0.46,-1.2 0.38,-0.62 0.82,-1.15 1.32,-1.59 0.1,-0.09 0.24,-0.21 0.43,-0.36 0.16,-0.13 0.12,-0.39 0.09,-0.55 -0.13,-0.7 -0.21,-1.16 -0.4,-1.76 -0.11,-0.36 -0.19,-0.6 -0.23,-0.73 -0.74,-2.22 -1.91,-4.17 -3.75,-5.61 -0.75,-0.58 -1.56,-0.96 -2.44,-1.15 -0.31,-0.07 -0.9,-0.07 -1.08,0.24 -0.01,0.02 -0.02,0.04 -0.02,0.06 0.01,0.19 0.01,0.29 0.02,0.3 0.17,1.45 0.29,2.36 0.35,2.72 0.12,0.71 0.33,1.84 0.62,3.39 0.12,0.61 0.28,1.23 0.45,1.98 0.11,0.48 0.24,0.97 0.37,1.47 0.52,1.96 1,3.65 1.43,5.08 0.3,0.99 0.68,2.1 0.95,2.99 0.2,0.65 0.34,1.05 0.41,1.18 0.3,0.53 0.94,1.19 1.61,1.06 0.32,-0.06 0.56,-0.22 0.72,-0.47 0.48,-0.72 0.46,-1.66 0.32,-2.49 -0.06,-0.38 -0.23,-0.75 -0.41,-1.12 -0.02,-0.03 0.01,-0.07 0.05,-0.07zm-23.86 -3.6c0.03,-0.08 0.07,-0.2 0.11,-0.34 0.04,-0.12 0.12,-0.27 0.25,-0.46 0.25,-0.36 0.56,-0.69 0.93,-0.99 0.25,-0.2 0.5,-0.33 0.83,-0.54 0.02,-0.02 0.04,-0.04 0.03,-0.07 -0.03,-0.18 -0.08,-0.38 -0.14,-0.59 -0.22,-0.72 -0.45,-1.42 -0.71,-2.08 -0.29,-0.77 -0.74,-1.59 -1.34,-2.45 -0.79,-1.15 -1.95,-2.06 -3.21,-2.65 -0.78,-0.36 -1.64,-0.62 -2.56,-0.79 -1.36,-0.24 -2.67,-0.09 -3.92,0.45 -1.19,0.51 -2.16,1.3 -2.91,2.36 -0.71,0.99 -1.24,2.11 -1.59,3.35 -0.42,1.5 -0.65,2.98 -0.68,4.44 -0.01,0.52 0.1,1.14 0.49,1.47 0.21,0.18 0.33,0.27 0.34,0.28 1.71,1.22 2.75,1.98 4.3,2.6 0.09,0.04 0.17,0.05 0.26,0.06 0.02,0 0.03,-0.02 0.02,-0.03 -0.1,-0.13 -0.2,-0.28 -0.28,-0.45 -0.24,-0.48 -0.4,-0.85 -0.51,-1.09 -0.64,-1.55 -0.99,-3.19 -0.97,-4.84 0.01,-0.45 0.08,-1.06 0.18,-1.44 0.01,-0.05 0.07,-0.07 0.11,-0.04 0.03,0.03 0.07,0.07 0.09,0.14 0.2,0.45 0.43,0.99 0.68,1.6 0.61,1.48 1.44,2.88 2.49,4.19 0.68,0.84 1.4,1.55 2.18,2.12 0.47,0.34 1.03,0.67 1.5,0.91 1.12,0.57 2.33,0.9 3.63,0.97 0.22,0.01 0.51,-0 0.88,-0.04 0.77,-0.08 1.4,-0.36 1.96,-0.89 0.2,-0.19 0.42,-0.37 0.66,-0.54 0.04,-0.03 0.1,0 0.1,0.05 0.01,0.53 -0.03,1.08 0.06,1.56 0.17,0.83 0.6,1.52 1.28,2.06 0.31,0.25 0.49,0.39 0.52,0.41 0.26,0.2 0.46,0.44 0.52,0.74 0.12,0.65 0.26,1.42 0.9,1.8 0.74,0.44 1.42,0.01 1.66,-0.73 0.2,-0.61 0.19,-1.13 0.18,-1.82 -0.01,-0.47 -0.06,-0.95 -0.13,-1.45 -0.01,-0.07 0.03,-0.14 0.1,-0.16 0.02,-0.01 0.05,0.01 0.09,0.03 0.26,0.2 0.46,0.45 0.61,0.75 0.23,0.48 0.38,0.98 0.46,1.5 0.09,0.57 0.15,1.18 0.61,1.52 0.48,0.36 1.2,0.23 1.58,-0.21 0.31,-0.36 0.48,-0.85 0.54,-1.37 0.09,-0.83 0.03,-1.65 -0.17,-2.46 -0.05,-0.2 -0.14,-0.52 -0.27,-0.94 -0.01,-0.04 0.02,-0.08 0.06,-0.08 0.19,0.02 0.48,0.26 0.63,0.44 0.65,0.77 0.91,1.61 1.05,2.61 0.05,0.38 0.21,0.63 0.59,0.67 0.67,0.06 1.17,-0.46 1.39,-1.07 0.12,-0.33 0.18,-0.6 0.2,-0.8 0.09,-1.29 -0.16,-2.52 -0.76,-3.68 -0.5,-0.97 -1.2,-1.81 -2.09,-2.51 -0.74,-0.59 -1.53,-1.04 -2.37,-1.35 -0.94,-0.35 -1.97,-0.63 -3.09,-0.82 -2.05,-0.35 -3.99,-0.23 -5.94,0.36 -0.39,0.12 -0.76,0.24 -1.13,0.35 -0.09,0.03 -0.18,0.04 -0.27,0.03 -0.02,-0 -0.03,-0.02 -0.02,-0.03z"/>
 </g>
</svg>
